<svg xmlns="http://www.w3.org/2000/svg" width="13" height="14" viewBox="0 0 593.938 612"><path data-name="Forma 1" d="M412.533 399.505c39.134-42.355 63.549-99.068 63.549-161.525C476.082 106.965 369.448 0 238.041 0S0 106.965 0 237.98s106.634 237.98 238.041 237.98a236.9 236.9 0 0 0 142.537-47.38l177 176.959A21.271 21.271 0 0 0 572.662 612a20.668 20.668 0 0 0 15.079-6.461c8.259-8.256 8.259-21.895 0-30.51zM43.085 237.98c0-107.325 87.245-194.907 194.956-194.907C345.393 43.073 433 130.3 433 237.98s-87.248 194.907-194.959 194.907S43.085 345.305 43.085 237.98z" fill="#111"/></svg>