<svg xmlns="http://www.w3.org/2000/svg" width="86.125" height="73.656"><path data-name="Forma 1" class="cls-1" d="M84.325 1.803a5.934 5.934 0 0 0-4.35-1.8H6.145A6.147 6.147 0 0 0-.008 6.142v61.38a6.147 6.147 0 0 0 6.153 6.139h73.829a6.147 6.147 0 0 0 6.151-6.138V6.143a5.91 5.91 0 0 0-1.8-4.34zM12.297 3.074h18.457v6.138H12.295V3.074zm67.678 64.449H6.145v-6.138h73.83v6.138zM24.602 39.998a18.44 18.44 0 1 1 5.407 13.019A17.726 17.726 0 0 1 24.6 39.998zm55.373-27.237v5.658H6.145v-6.138H37.1l3.076-6.138h39.8v6.618zM51.759 48.678a12.322 12.322 0 1 0-8.7 3.6 11.813 11.813 0 0 0 8.698-3.6zM39.79 36.641a4.436 4.436 0 0 0-1.345 3.261 1.539 1.539 0 1 1-3.077 0 7.7 7.7 0 0 1 7.691-7.672 1.535 1.535 0 1 1 0 3.069 4.457 4.457 0 0 0-3.271 1.342z" fill="#54d154"/></svg>