<svg xmlns="http://www.w3.org/2000/svg" width="86.156" height="73.656"><path data-name="Forma 1" class="cls-1" d="M53.848 50.633a3.115 3.115 0 0 1-3.076 3.07H35.39a3.115 3.115 0 0 1-3.076-3.07v-7.671H.014v23.017a7.7 7.7 0 0 0 7.691 7.671h70.751a7.7 7.7 0 0 0 7.688-7.671V42.962h-32.3v7.671zm-16.92-7.671h12.306V49.1H36.928v-6.137zm46.961-28.437a7.413 7.413 0 0 0-5.431-2.254h-16.92V4.6A4.591 4.591 0 0 0 56.924 0H29.238a4.591 4.591 0 0 0-4.615 4.6v7.673H7.704a7.7 7.7 0 0 0-7.691 7.672V38.36h86.133V19.943a7.371 7.371 0 0 0-2.257-5.418zm-28.5-2.254H30.776V6.133h24.61v6.138z" fill="#54d154"/></svg>