<svg xmlns="http://www.w3.org/2000/svg" width="86.125" height="67.5"><path data-name="Forma 1" class="cls-1" d="M82.723 26.264A42.258 42.258 0 0 0 59.795 3.39a42.79 42.79 0 0 0-33.455 0A42.275 42.275 0 0 0 3.412 26.264a42.785 42.785 0 0 0 3.365 39.851 2.928 2.928 0 0 0 2.6 1.389h67.39a2.925 2.925 0 0 0 2.594-1.389 42.782 42.782 0 0 0 3.362-39.851zM38.717 7.925a6.125 6.125 0 1 1-1.8 4.339 5.934 5.934 0 0 1 1.8-4.339zM16.655 47.294a6.125 6.125 0 1 1 1.8-4.34 5.936 5.936 0 0 1-1.8 4.338zm9.229-21.483a6.125 6.125 0 1 1 1.8-4.34 5.935 5.935 0 0 1-1.8 4.338zm27.229.408l-4.855 18.317a9.125 9.125 0 0 1 3.462 4.365 9.214 9.214 0 0 1-3.99 11.221 9 9 0 0 1-7.018.958 8.824 8.824 0 0 1-5.624-4.267 9.167 9.167 0 0 1 2.068-11.724 9.141 9.141 0 0 1 5.142-2.087l4.855-18.318a3.03 3.03 0 0 1 1.442-1.895 2.873 2.873 0 0 1 2.307-.311 3.14 3.14 0 0 1 2.211 3.739zm7.139-.408a6.16 6.16 0 1 1 4.349 1.8 5.907 5.907 0 0 1-4.349-1.802zM78.18 47.294a6.127 6.127 0 1 1 1.8-4.34 5.936 5.936 0 0 1-1.8 4.338z" fill="#54d154"/></svg>