<svg xmlns="http://www.w3.org/2000/svg" xmlns:xlink="http://www.w3.org/1999/xlink"><symbol id="service__icon--case" viewBox="0 0 86.156 73.656">
 
<path id="Forma_1" data-name="Forma 1" class="cls-1" d="M969.692,911.633a3.115,3.115,0,0,1-3.076,3.07H951.234a3.115,3.115,0,0,1-3.076-3.07v-7.671h-32.3v23.017a7.7,7.7,0,0,0,7.691,7.671H994.3a7.7,7.7,0,0,0,7.688-7.671V903.962h-32.3v7.671h0Zm-16.92-7.671h12.306V910.1H952.772v-6.137Zm46.961-28.437a7.413,7.413,0,0,0-5.431-2.254h-16.92V865.6a4.591,4.591,0,0,0-4.614-4.6H945.082a4.591,4.591,0,0,0-4.615,4.6v7.673H923.548a7.7,7.7,0,0,0-7.691,7.672v18.415h86.133V880.943A7.371,7.371,0,0,0,999.733,875.525Zm-28.5-2.254H946.62v-6.138h24.61v6.138Z" transform="translate(-915.844 -861)" fill="#54d154"/>

</symbol><symbol id="service__icon--foto" viewBox="0 0 86.125 73.656">
 
<path id="Forma_1" data-name="Forma 1" class="cls-1" d="M242.2,866.147a5.934,5.934,0,0,0-4.35-1.8h-73.83a6.147,6.147,0,0,0-6.153,6.139v61.38a6.147,6.147,0,0,0,6.153,6.139h73.829A6.147,6.147,0,0,0,244,931.867v-61.38A5.91,5.91,0,0,0,242.2,866.147Zm-72.028,1.271h18.457v6.138H170.17v-6.138Zm67.678,64.449h-73.83v-6.138h73.83v6.138h0Zm-55.373-27.525a18.44,18.44,0,1,1,5.407,13.019A17.726,17.726,0,0,1,182.475,904.342Zm55.373-27.237v5.658h-73.83v-6.138h30.955l3.076-6.138h39.8v6.618h0Zm-28.216,35.917a12.322,12.322,0,1,0-8.7,3.6A11.813,11.813,0,0,0,209.632,913.022Zm-11.969-12.037a4.436,4.436,0,0,0-1.345,3.261,1.539,1.539,0,1,1-3.077,0,7.7,7.7,0,0,1,7.691-7.672,1.535,1.535,0,1,1,0,3.069A4.457,4.457,0,0,0,197.663,900.985Z" transform="translate(-157.875 -864.344)" fill="#54d154"/>

</symbol><symbol id="service__icon--speed" viewBox="0 0 86.125 67.5">
<path id="Forma_1" data-name="Forma 1" class="cls-1" d="M623.723,889.639a42.258,42.258,0,0,0-22.928-22.874,42.79,42.79,0,0,0-33.455,0,42.275,42.275,0,0,0-22.928,22.874,42.785,42.785,0,0,0,3.365,39.851,2.928,2.928,0,0,0,2.6,1.389h67.39a2.925,2.925,0,0,0,2.594-1.389A42.782,42.782,0,0,0,623.723,889.639ZM579.717,871.3a6.125,6.125,0,1,1-1.8,4.339A5.934,5.934,0,0,1,579.717,871.3Zm-22.062,39.369a6.125,6.125,0,1,1,1.8-4.34A5.936,5.936,0,0,1,557.655,910.667Zm9.229-21.483a6.125,6.125,0,1,1,1.8-4.34A5.935,5.935,0,0,1,566.884,889.184Zm27.229,0.408-4.855,18.317a9.125,9.125,0,0,1,3.462,4.365,9.214,9.214,0,0,1-3.99,11.221,9,9,0,0,1-7.018.958,8.824,8.824,0,0,1-5.624-4.267,9.167,9.167,0,0,1,2.068-11.724,9.141,9.141,0,0,1,5.142-2.087l4.855-18.318a3.03,3.03,0,0,1,1.442-1.895,2.873,2.873,0,0,1,2.307-.311A3.14,3.14,0,0,1,594.113,889.592Zm7.139-.408a6.16,6.16,0,1,1,4.349,1.8A5.907,5.907,0,0,1,601.252,889.184Zm17.928,21.483a6.127,6.127,0,1,1,1.8-4.34A5.936,5.936,0,0,1,619.18,910.667Z" transform="translate(-541 -863.375)" fill="#54d154"/>

</symbol><symbol id="team__icon--web" viewBox="0 0 20 20">

<path id="Forma_1" data-name="Forma 1" class="cls-1" d="M205,3218a10,10,0,1,0,10,10A10.014,10.014,0,0,0,205,3218Zm6.579,4.72a8.4,8.4,0,0,1,1.867,5.15,20.621,20.621,0,0,0-3.909-.38,15.913,15.913,0,0,0-1.925.11c-0.056-.13-0.111-0.26-0.169-0.4-0.17-.4-0.352-0.79-0.542-1.18A11.529,11.529,0,0,0,211.579,3222.72ZM205,3219.56a8.442,8.442,0,0,1,5.566,2.1,9.593,9.593,0,0,1-4.364,3,46.9,46.9,0,0,0-3.107-4.88A8.538,8.538,0,0,1,205,3219.56Zm-3.629.83a54.837,54.837,0,0,1,3.091,4.81,31.756,31.756,0,0,1-7.636,1.02h-0.082A8.464,8.464,0,0,1,201.371,3220.39Zm-4.819,7.62q0-.105,0-0.21c0.051,0,.125.01,0.222,0.01a31.475,31.475,0,0,0,8.437-1.21c0.228,0.45.445,0.9,0.646,1.35l-0.281.09a13.491,13.491,0,0,0-6.9,5.57A8.4,8.4,0,0,1,196.552,3228.01Zm8.448,8.45a8.42,8.42,0,0,1-5.153-1.76,11.68,11.68,0,0,1,6.62-5.24s0.007,0,.01-0.01a35.537,35.537,0,0,1,1.786,6.35A8.263,8.263,0,0,1,205,3236.46Zm4.784-1.49a36.894,36.894,0,0,0-1.619-5.93,11.318,11.318,0,0,1,1.7-.13,12.4,12.4,0,0,1,3.468.49A8.453,8.453,0,0,1,209.784,3234.97Z" transform="translate(-195 -3218)"/>

</symbol></svg>