<svg xmlns="http://www.w3.org/2000/svg" width="20" height="20"><path data-name="Forma 1" class="cls-1" d="M10 0a10 10 0 1 0 10 10A10.014 10.014 0 0 0 10 0zm6.579 4.72a8.4 8.4 0 0 1 1.867 5.15 20.621 20.621 0 0 0-3.909-.38 15.913 15.913 0 0 0-1.925.11 25.154 25.154 0 0 0-.711-1.58 11.529 11.529 0 0 0 4.678-3.3zM10 1.56a8.442 8.442 0 0 1 5.566 2.1 9.593 9.593 0 0 1-4.364 3 46.9 46.9 0 0 0-3.107-4.88A8.538 8.538 0 0 1 10 1.56zm-3.629.83A54.837 54.837 0 0 1 9.462 7.2a31.756 31.756 0 0 1-7.636 1.02h-.082a8.464 8.464 0 0 1 4.627-5.83zm-4.819 7.62V9.8c.051 0 .125.01.222.01a31.475 31.475 0 0 0 8.437-1.21c.228.45.445.9.646 1.35l-.281.09a13.491 13.491 0 0 0-6.9 5.57 8.4 8.4 0 0 1-2.124-5.6zM10 18.46a8.42 8.42 0 0 1-5.153-1.76 11.68 11.68 0 0 1 6.62-5.24s.007 0 .01-.01a35.537 35.537 0 0 1 1.786 6.35 8.263 8.263 0 0 1-3.263.66zm4.784-1.49a36.894 36.894 0 0 0-1.619-5.93 11.318 11.318 0 0 1 1.7-.13 12.4 12.4 0 0 1 3.468.49 8.453 8.453 0 0 1-3.549 5.57z"/></svg>