<svg xmlns="http://www.w3.org/2000/svg" width="20" height="20"><path data-name="Forma 1" class="cls-1" d="M8.416 8.33a.614.614 0 0 0-.521-.76H5.753v1.64h2.01c.347 0 .653-.11.653-.88zm4.964.88a1.313 1.313 0 0 0-1.295 1.13H14.5a1.092 1.092 0 0 0-1.12-1.13zm-5.485 1.13H5.754v1.97h2.033a.829.829 0 0 0 .885-.96.846.846 0 0 0-.772-1.01zM10 0a10 10 0 1 0 10 10A10.013 10.013 0 0 0 10 0zm1.769 6.69H14.8v.91h-3.036v-.91zm-1.535 4.76a2.185 2.185 0 0 1-2.338 2.17H4.068V6.26H7.9a1.879 1.879 0 0 1 2.083 1.96 1.274 1.274 0 0 1-1.123 1.4c1.475 0 1.373 1.83 1.373 1.83zm5.68-.12H12.1a1.2 1.2 0 0 0 1.3 1.28c1.223 0 1.18-.8 1.18-.8h1.3c0 2.11-2.518 1.96-2.518 1.96a2.609 2.609 0 0 1-2.827-2.81 2.768 2.768 0 0 1 2.827-2.83c2.969 0 2.551 3.2 2.551 3.2z"/></svg>