<svg xmlns="http://www.w3.org/2000/svg" width="20" height="20"><path data-name="Forma 1" class="cls-1" d="M10 0a10 10 0 1 0 10 10A10 10 0 0 0 10 0zm4.976 7.75l.007.32a7 7 0 0 1-10.78 5.9 5.69 5.69 0 0 0 .588.04 4.943 4.943 0 0 0 3.057-1.06 2.461 2.461 0 0 1-2.3-1.71 2.363 2.363 0 0 0 .464.05 2.311 2.311 0 0 0 .648-.09 2.465 2.465 0 0 1-1.975-2.41v-.03a2.467 2.467 0 0 0 1.115.3 2.449 2.449 0 0 1-1.095-2.04 2.424 2.424 0 0 1 .333-1.24 6.975 6.975 0 0 0 5.074 2.57 2.463 2.463 0 0 1 4.2-2.24 5.235 5.235 0 0 0 1.564-.6 2.464 2.464 0 0 1-1.083 1.36 4.814 4.814 0 0 0 1.414-.39 4.794 4.794 0 0 1-1.231 1.27z"/></svg>